<?xml version="1.0" encoding="UTF-8" standalone="no"?>
<!DOCTYPE svg PUBLIC "-//W3C//DTD SVG 1.1//EN" "http://www.w3.org/Graphics/SVG/1.1/DTD/svg11.dtd">
<svg width="100%" height="100%" viewBox="0 0 8000 4500" version="1.1" xmlns="http://www.w3.org/2000/svg" xmlnsXlink="http://www.w3.org/1999/xlink" xmlSpace="preserve" xmlnsSerif="http://www.serif.com/" style="fill-rule:evenodd;clip-rule:evenodd;stroke-miterlimit:2;">
    <g transform="matrix(4.16667,0,0,4.16667,0,0)">
        <path d="M652.156,272.847C652.156,279.364 657.438,284.647 663.953,284.647C670.469,284.647 675.75,279.364 675.75,272.847C675.75,266.33 670.469,261.047 663.953,261.047C657.438,261.047 652.156,266.33 652.156,272.847Z" style="fill:white;fill-rule:nonzero;"/>
        <path d="M238.258,172.649C238.258,179.166 243.539,184.449 250.055,184.449C256.57,184.449 261.851,179.166 261.851,172.649C261.851,166.132 256.57,160.849 250.055,160.849C243.539,160.849 238.258,166.132 238.258,172.649Z" style="fill:white;fill-rule:nonzero;"/>
        <path d="M1794.04,94.041C1794.34,95.949 1796.13,97.25 1798.03,96.949C1799.94,96.647 1801.23,94.856 1800.94,92.949C1800.63,91.041 1798.84,89.742 1796.94,90.043C1795.03,90.345 1793.73,92.134 1794.04,94.041Z" style="fill:white;fill-rule:nonzero;"/>
        <path d="M123.93,1002.03C123.93,1000.1 125.492,998.531 127.422,998.531C129.352,998.531 130.914,1000.1 130.914,1002.03C130.914,1003.96 129.352,1005.52 127.422,1005.52C125.492,1005.52 123.93,1003.96 123.93,1002.03Z" style="fill:white;fill-rule:nonzero;"/>
        <path d="M392.797,998.531C392.797,1000.46 394.359,1002.03 396.289,1002.03C398.219,1002.03 399.781,1000.46 399.781,998.531C399.781,996.601 398.219,995.036 396.289,995.036C394.359,995.036 392.797,996.601 392.797,998.531Z" style="fill:white;fill-rule:nonzero;"/>
        <path d="M936.016,979.112C936.016,992.609 946.953,1003.55 960.453,1003.55C973.953,1003.55 984.891,992.609 984.891,979.112C984.891,965.616 973.953,954.675 960.453,954.675C946.953,954.675 936.016,965.616 936.016,979.112Z" style="fill:white;fill-rule:nonzero;"/>
        <path d="M157.344,210.93C157.344,197.434 168.281,186.493 181.781,186.493C195.281,186.493 206.219,197.434 206.219,210.93C206.219,224.426 195.281,235.367 181.781,235.367C168.281,235.367 157.344,224.426 157.344,210.93Z" style="fill:white;fill-rule:nonzero;"/>
        <path d="M1885.75,333.901C1885.75,328.75 1889.93,324.567 1895.08,324.567C1900.23,324.567 1904.42,328.75 1904.42,333.901C1904.42,339.051 1900.23,343.235 1895.08,343.235C1889.93,343.235 1885.75,339.051 1885.75,333.901ZM2137.77,-2.12C2137.77,-7.27 2141.95,-11.453 2147.1,-11.453C2152.25,-11.453 2156.43,-7.27 2156.43,-2.12C2156.43,3.031 2152.25,7.214 2147.1,7.214C2141.95,7.214 2137.77,3.031 2137.77,-2.12ZM2221.77,688.589C2221.77,683.438 2225.95,679.255 2231.1,679.255C2236.26,679.255 2240.44,683.438 2240.44,688.589C2240.44,693.74 2236.26,697.923 2231.1,697.923C2225.95,697.923 2221.77,693.74 2221.77,688.589Z" style="fill:white;fill-rule:nonzero;"/>
        <path d="M1324.05,393.181C1324.05,399.698 1329.33,404.981 1335.84,404.981C1342.36,404.981 1347.64,399.698 1347.64,393.181C1347.64,386.664 1342.36,381.381 1335.84,381.381C1329.33,381.381 1324.05,386.664 1324.05,393.181Z" style="fill:white;fill-rule:nonzero;"/>
        <path d="M1481.65,855.717C1481.65,862.234 1486.93,867.517 1493.45,867.517C1499.96,867.517 1505.24,862.234 1505.24,855.717C1505.24,849.2 1499.96,843.917 1493.45,843.917C1486.93,843.917 1481.65,849.2 1481.65,855.717Z" style="fill:white;fill-rule:nonzero;"/>
        <path d="M1697.94,589.961C1691.42,589.961 1686.14,595.242 1686.14,601.758C1686.14,608.273 1691.42,613.555 1697.94,613.555C1704.46,613.555 1709.74,608.273 1709.74,601.758C1709.74,595.242 1704.46,589.961 1697.94,589.961Z" style="fill:white;fill-rule:nonzero;"/>
        <path d="M1212.78,694.427C1212.78,696.358 1214.34,697.923 1216.27,697.923C1218.2,697.923 1219.77,696.358 1219.77,694.427C1219.77,692.497 1218.2,690.932 1216.27,690.932C1214.34,690.932 1212.78,692.497 1212.78,694.427Z" style="fill:white;fill-rule:nonzero;"/>
        <path d="M1859.23,321.094C1857.3,321.094 1855.73,322.656 1855.73,324.586C1855.73,326.516 1857.3,328.078 1859.23,328.078C1861.16,328.078 1862.72,326.516 1862.72,324.586C1862.72,322.656 1861.16,321.094 1859.23,321.094Z" style="fill:white;fill-rule:nonzero;"/>
        <path d="M1147.02,610.615C1147.32,612.522 1149.11,613.824 1151.02,613.522C1152.92,613.221 1154.22,611.43 1153.92,609.522C1153.62,607.615 1151.83,606.315 1149.92,606.617C1148.02,606.919 1146.72,608.708 1147.02,610.615Z" style="fill:white;fill-rule:nonzero;"/>
        <path d="M1481.65,697.923C1481.65,695.992 1483.21,694.427 1485.14,694.427C1487.07,694.427 1488.63,695.992 1488.63,697.923C1488.63,699.854 1487.07,701.419 1485.14,701.419C1483.21,701.419 1481.65,699.854 1481.65,697.923Z" style="fill:white;fill-rule:nonzero;"/>
        <path d="M1855.73,589.961C1857.66,589.961 1859.23,591.523 1859.23,593.453C1859.23,595.383 1857.66,596.945 1855.73,596.945C1853.8,596.945 1852.24,595.383 1852.24,593.453C1852.24,591.523 1853.8,589.961 1855.73,589.961Z" style="fill:white;fill-rule:nonzero;"/>
        <path d="M1307.96,511.348C1307.96,507.051 1307.04,503.214 1305.2,499.837C1303.36,496.46 1301.14,493.698 1298.56,491.549C1295.97,489.4 1293.23,487.887 1290.33,487.01C1287.44,486.133 1284.72,485.695 1282.18,485.695L1246.5,485.695L1246.5,490.299L1281.91,490.299C1285.42,490.299 1288.54,491.045 1291.25,492.536C1293.97,494.027 1296.19,495.846 1297.9,497.995C1299.61,500.144 1300.81,502.402 1301.52,504.77C1302.22,507.138 1302.57,509.375 1302.57,511.48C1302.57,513.847 1302.13,516.259 1301.25,518.715C1300.38,521.171 1299.24,523.232 1297.83,524.898L1301.78,527.661C1303.71,525.468 1305.22,522.947 1306.32,520.096C1307.41,517.246 1307.96,514.33 1307.96,511.348ZM1311.12,558.445C1311.12,554.761 1310.42,551.319 1309.01,548.117C1307.61,544.916 1305.68,542.176 1303.23,539.895C1300.77,537.615 1297.99,535.839 1294.87,534.567C1291.76,533.296 1288.62,532.66 1285.47,532.66L1251,532.66L1251,485.695L1245.74,485.695L1245.74,584.361L1251,584.361L1251,537.396L1285.2,537.396C1290.9,537.396 1295.77,539.457 1299.81,543.579C1303.84,547.701 1305.86,552.7 1305.86,558.576C1305.86,562.172 1305.11,565.351 1303.62,568.114C1302.13,570.876 1300.48,573.025 1298.69,574.56C1296.89,576.095 1294.89,577.345 1292.7,578.309C1290.51,579.274 1288.01,579.756 1285.2,579.756L1248.05,579.756L1248.05,584.361L1285.33,584.361C1288.75,584.361 1292.26,583.593 1295.86,582.059C1299.45,580.524 1302.46,578.287 1304.87,575.349C1307.28,572.411 1308.93,569.495 1309.8,566.601C1310.68,563.707 1311.12,560.988 1311.12,558.445Z" style="fill:white;fill-rule:nonzero;"/>
        <clipPath id="_clip1">
            <path d="M1307.96,511.348C1307.96,507.051 1307.04,503.214 1305.2,499.837C1303.36,496.46 1301.14,493.698 1298.56,491.549C1295.97,489.4 1293.23,487.887 1290.33,487.01C1287.44,486.133 1284.72,485.695 1282.18,485.695L1246.5,485.695L1246.5,490.299L1281.91,490.299C1285.42,490.299 1288.54,491.045 1291.25,492.536C1293.97,494.027 1296.19,495.846 1297.9,497.995C1299.61,500.144 1300.81,502.402 1301.52,504.77C1302.22,507.138 1302.57,509.375 1302.57,511.48C1302.57,513.847 1302.13,516.259 1301.25,518.715C1300.38,521.171 1299.24,523.232 1297.83,524.898L1301.78,527.661C1303.71,525.468 1305.22,522.947 1306.32,520.096C1307.41,517.246 1307.96,514.33 1307.96,511.348ZM1311.12,558.445C1311.12,554.761 1310.42,551.319 1309.01,548.117C1307.61,544.916 1305.68,542.176 1303.23,539.895C1300.77,537.615 1297.99,535.839 1294.87,534.567C1291.76,533.296 1288.62,532.66 1285.47,532.66L1251,532.66L1251,485.695L1245.74,485.695L1245.74,584.361L1251,584.361L1251,537.396L1285.2,537.396C1290.9,537.396 1295.77,539.457 1299.81,543.579C1303.84,547.701 1305.86,552.7 1305.86,558.576C1305.86,562.172 1305.11,565.351 1303.62,568.114C1302.13,570.876 1300.48,573.025 1298.69,574.56C1296.89,576.095 1294.89,577.345 1292.7,578.309C1290.51,579.274 1288.01,579.756 1285.2,579.756L1248.05,579.756L1248.05,584.361L1285.33,584.361C1288.75,584.361 1292.26,583.593 1295.86,582.059C1299.45,580.524 1302.46,578.287 1304.87,575.349C1307.28,572.411 1308.93,569.495 1309.8,566.601C1310.68,563.707 1311.12,560.988 1311.12,558.445Z" clip-rule="nonzero"/>
        </clipPath>
        <g clip-path="url(#_clip1)">
            <path d="M972.174,584.24C999.487,584.24 1021.63,562.099 1021.63,534.787C1021.63,507.474 999.487,485.333 972.174,485.333C944.862,485.333 922.721,507.474 922.721,534.787C922.721,562.099 944.862,584.24 972.174,584.24Z" style="fill:none;stroke:rgb(54,54,57);stroke-width:5.89px;"/>
        </g>
        <path d="M691.828,510.807C691.828,506.51 690.973,502.607 689.263,499.099C687.553,495.591 685.382,492.696 682.751,490.416C680.12,488.136 677.204,486.491 674.003,485.483C670.802,484.474 667.622,483.97 664.465,483.97L635.449,483.97L635.449,488.574L664.333,488.574C667.842,488.574 671.328,489.342 674.792,490.877C678.256,492.411 681.085,495.021 683.277,498.704C685.47,502.388 686.566,506.422 686.566,510.807C686.566,515.631 685.207,519.972 682.488,523.831C679.769,527.69 675.998,530.233 671.174,531.461L672.49,536.592C677.05,535.452 680.866,533.325 683.935,530.211C687.005,527.098 689.088,523.765 690.184,520.213C691.28,516.661 691.828,513.526 691.828,510.807ZM656.309,534.224L652.099,537.381L689.987,584.478L694.328,581.32L656.309,534.224ZM638.68,483.97L633.418,483.97L633.418,582.636L638.68,582.636L638.68,483.97Z" style="fill:white;fill-rule:nonzero;"/>
        <clipPath id="_clip2">
            <path d="M691.828,510.807C691.828,506.51 690.973,502.607 689.263,499.099C687.553,495.591 685.382,492.696 682.751,490.416C680.12,488.136 677.204,486.491 674.003,485.483C670.802,484.474 667.622,483.97 664.465,483.97L635.449,483.97L635.449,488.574L664.333,488.574C667.842,488.574 671.328,489.342 674.792,490.877C678.256,492.411 681.085,495.021 683.277,498.704C685.47,502.388 686.566,506.422 686.566,510.807C686.566,515.631 685.207,519.972 682.488,523.831C679.769,527.69 675.998,530.233 671.174,531.461L672.49,536.592C677.05,535.452 680.866,533.325 683.935,530.211C687.005,527.098 689.088,523.765 690.184,520.213C691.28,516.661 691.828,513.526 691.828,510.807ZM656.309,534.224L652.099,537.381L689.987,584.478L694.328,581.32L656.309,534.224ZM638.68,483.97L633.418,483.97L633.418,582.636L638.68,582.636L638.68,483.97Z" clip-rule="nonzero"/>
        </clipPath>
        <g clip-path="url(#_clip2)">
            <path d="M759.517,582.515C786.829,582.515 808.97,560.374 808.97,533.062C808.97,505.75 786.829,483.609 759.517,483.609C732.205,483.609 710.064,505.75 710.064,533.062C710.064,560.374 732.205,582.515 759.517,582.515Z" style="fill:none;stroke:rgb(54,54,57);stroke-width:5.89px;"/>
        </g>
        <path d="M1026.74,551.963C1018.98,570.445 1000.76,583.502 979.554,583.502C951.379,583.502 928.496,560.626 928.496,532.444C928.496,504.263 951.379,481.386 979.554,481.386C1000.76,481.386 1018.98,494.443 1026.74,512.926L1021.96,514.735C1015.1,497.801 998.689,485.912 979.554,485.912C954.22,485.912 933.67,506.721 933.67,532.444C933.67,558.167 954.22,578.981 979.554,578.981C998.689,578.981 1015.1,567.088 1021.96,550.153L1026.74,551.963Z" style="fill:white;fill-rule:nonzero;"/>
        <path d="M555.362,554.546C547.605,573.029 529.381,586.086 508.177,586.086C480.002,586.086 457.12,563.209 457.12,535.028C457.12,506.847 480.002,483.97 508.177,483.97C529.381,483.97 547.605,497.026 555.362,515.509L550.578,517.318C543.727,500.384 527.312,488.495 508.177,488.495C482.843,488.495 462.293,509.304 462.293,535.028C462.293,560.751 482.843,581.565 508.177,581.565C527.312,581.565 543.727,569.672 550.578,552.737L555.362,554.546Z" style="fill:white;fill-rule:nonzero;"/>
        <path d="M1155.7,552.346C1155.7,571.74 1140.18,586.086 1120.92,586.086C1101.54,586.086 1085.89,571.74 1085.89,552.346L1085.89,486.555L1091.07,486.555L1091.07,552.346C1091.07,569.156 1104.38,581.565 1120.8,581.565C1137.21,581.565 1150.52,569.282 1150.52,552.346L1150.52,486.555L1155.7,486.555L1155.7,552.346Z" style="fill:white;fill-rule:nonzero;"/>
        <path d="M1462.88,583.502L1409.24,583.502L1409.24,486.555L1462.88,486.555L1462.88,491.08L1414.41,491.08L1414.41,532.828L1459.01,532.828L1459.01,537.354L1414.41,537.354L1414.41,578.976L1462.88,578.976L1462.88,583.502Z" style="fill:white;fill-rule:nonzero;"/>
        <path d="M460.149,850.315C474.529,852.35 489.189,853.507 504.131,853.507C657.144,853.507 784.554,743.887 812.114,598.897" style="fill:none;stroke:white;stroke-width:4.52px;stroke-linecap:round;"/>
        <path d="M862.482,508.707L811.414,538.988" style="fill:none;stroke:white;stroke-width:4.52px;stroke-linecap:round;stroke-linejoin:round;"/>
        <path d="M811.492,477.919C782.684,334.51 656.022,226.493 504.131,226.493C489.189,226.493 474.529,227.649 460.149,229.684" style="fill:none;stroke:white;stroke-width:4.52px;stroke-linecap:round;"/>
        <path d="M863.303,569.514L863.303,508.359L811.412,477.782L759.523,508.359L759.523,569.514L811.412,600.091L863.303,569.514Z" style="fill:none;stroke:white;stroke-width:4.52px;stroke-linecap:round;stroke-linejoin:round;"/>
        <path d="M811.412,538.938L811.412,599.098" style="fill:none;stroke:white;stroke-width:4.52px;stroke-linecap:round;stroke-linejoin:round;"/>
        <path d="M759.522,508.707L810.59,538.988" style="fill:none;stroke:white;stroke-width:4.52px;stroke-linecap:round;stroke-linejoin:round;"/>
        <path d="M120.254,466.913C120.254,471.927 124.316,475.992 129.332,475.992C134.348,475.992 138.41,471.927 138.41,466.913C138.41,461.898 134.348,457.834 129.332,457.834C124.316,457.834 120.254,461.898 120.254,466.913Z" style="fill:white;fill-rule:nonzero;"/>
        <path d="M951.371,737.079C951.371,742.093 955.434,746.158 960.449,746.158C965.465,746.158 969.527,742.093 969.527,737.079C969.527,732.065 965.465,728 960.449,728C955.434,728 951.371,732.065 951.371,737.079Z" style="fill:white;fill-rule:nonzero;"/>
        <path d="M241.52,822.794C241.52,827.809 245.582,831.873 250.598,831.873C255.613,831.873 259.676,827.809 259.676,822.794C259.676,817.78 255.613,813.715 250.598,813.715C245.582,813.715 241.52,817.78 241.52,822.794Z" style="fill:white;fill-rule:nonzero;"/>
        <path d="M241.516,701.386C241.516,699.9 242.719,698.696 244.207,698.696C245.691,698.696 246.895,699.9 246.895,701.386C246.895,702.871 245.691,704.075 244.207,704.075C242.719,704.075 241.516,702.871 241.516,701.386Z" style="fill:white;fill-rule:nonzero;"/>
    </g>
</svg>
